<svg width="29" height="27" viewBox="0 0 29 27" fill="none" xmlns="http://www.w3.org/2000/svg">
<path d="M5.24709 20.5518C6.49972 19.6808 7.8643 18.993 9.34081 18.4884C10.8173 17.9839 12.3888 17.7316 14.0552 17.7316C15.7216 17.7316 17.293 17.9839 18.7695 18.4884C20.2461 18.993 21.6106 19.6808 22.8633 20.5518C23.7796 19.6082 24.5056 18.5159 25.0412 17.2748C25.5769 16.0337 25.8447 14.69 25.8447 13.2436C25.8447 10.1826 24.6964 7.57612 22.3999 5.4242C20.1034 3.27229 17.3218 2.19633 14.0552 2.19633C10.7885 2.19633 8.00691 3.27229 5.71042 5.4242C3.41392 7.57612 2.26567 10.1826 2.26567 13.2436C2.26567 14.69 2.53349 16.0337 3.06913 17.2748C3.60476 18.5159 4.33075 19.6082 5.24709 20.5518ZM14.0556 14.2792C12.7101 14.2792 11.5754 13.8465 10.6515 12.9811C9.72767 12.1156 9.26573 11.0525 9.26573 9.79174C9.26573 8.53094 9.72752 7.46769 10.6511 6.60198C11.5747 5.73626 12.7093 5.30341 14.0547 5.30341C15.4002 5.30341 16.5349 5.73613 17.4588 6.60156C18.3827 7.46702 18.8446 8.53014 18.8446 9.79091C18.8446 11.0517 18.3828 12.115 17.4592 12.9807C16.5356 13.8464 15.4011 14.2792 14.0556 14.2792ZM14.0552 26.3622C12.111 26.3622 10.2874 26.0196 8.58414 25.3344C6.88091 24.6493 5.39919 23.7163 4.13899 22.5355C2.87881 21.3546 1.88314 19.9662 1.15197 18.3702C0.420773 16.7742 0.0551758 15.0653 0.0551758 13.2436C0.0551758 11.4219 0.420773 9.71299 1.15197 8.11701C1.88314 6.521 2.87881 5.13256 4.13899 3.9517C5.39919 2.77087 6.88091 1.83788 8.58414 1.15274C10.2874 0.46758 12.111 0.125 14.0552 0.125C15.9993 0.125 17.823 0.46758 19.5262 1.15274C21.2294 1.83788 22.7112 2.77087 23.9714 3.9517C25.2315 5.13256 26.2272 6.521 26.9584 8.11701C27.6896 9.71299 28.0552 11.4219 28.0552 13.2436C28.0552 15.0653 27.6896 16.7742 26.9584 18.3702C26.2272 19.9662 25.2315 21.3546 23.9714 22.5355C22.7112 23.7163 21.2294 24.6493 19.5262 25.3344C17.823 26.0196 15.9993 26.3622 14.0552 26.3622ZM14.0552 24.2909C15.3853 24.2909 16.6677 24.0904 17.9023 23.6894C19.1371 23.2884 20.2334 22.7276 21.1913 22.007C20.2334 21.313 19.1512 20.7722 17.9449 20.3845C16.7385 19.9967 15.442 19.8029 14.0552 19.8029C12.6684 19.8029 11.3695 19.9945 10.1584 20.3778C8.9473 20.7611 7.86754 21.3042 6.9191 22.007C7.877 22.7276 8.9733 23.2884 10.208 23.6894C11.4427 24.0904 12.7251 24.2909 14.0552 24.2909ZM14.0552 12.2079C14.7882 12.2079 15.4013 11.9769 15.8945 11.5148C16.3876 11.0527 16.6342 10.4782 16.6342 9.79132C16.6342 9.10441 16.3876 8.52991 15.8945 8.06781C15.4013 7.60574 14.7882 7.3747 14.0552 7.3747C13.3221 7.3747 12.709 7.60574 12.2159 8.06781C11.7227 8.52991 11.4762 9.10441 11.4762 9.79132C11.4762 10.4782 11.7227 11.0527 12.2159 11.5148C12.709 11.9769 13.3221 12.2079 14.0552 12.2079Z" fill="white"/>
</svg>
