<svg width="37" height="35" viewBox="0 0 37 35" fill="none" xmlns="http://www.w3.org/2000/svg">
<g id="icon-calendar">
<path id="Shape" fill-rule="evenodd" clip-rule="evenodd" d="M8.29049 1.34855C8.29049 0.888539 8.65968 0.515625 9.11513 0.515625C9.57059 0.515625 9.93978 0.888539 9.93978 1.34855V8.42844C9.93978 8.88845 9.57059 9.26137 9.11513 9.26137C8.65968 9.26137 8.29049 8.88845 8.29049 8.42844V1.34855ZM26.4327 1.34855C26.4327 0.888539 26.8019 0.515625 27.2573 0.515625C27.7128 0.515625 28.082 0.888539 28.082 1.34855V8.42844C28.082 8.88845 27.7128 9.26137 27.2573 9.26137C26.8019 9.26137 26.4327 8.88845 26.4327 8.42844V1.34855ZM3.34269 3.01476C1.50959 3.01476 0.03125 4.50796 0.03125 6.35949V13.8428H36.3156V6.35949C36.3156 4.50796 34.8372 3.01476 33.0041 3.01476H30.5431H28.9067V6.56772C29.4124 7.02525 29.7313 7.68905 29.7313 8.4288C29.7313 9.80884 28.6237 10.9276 27.2574 10.9276C25.8911 10.9276 24.7835 9.80884 24.7835 8.4288C24.7835 7.68905 25.1024 7.02525 25.6081 6.56772V3.01476H10.7516V6.55471C11.2652 7.01258 11.5891 7.68245 11.5891 8.4288C11.5891 9.80884 10.4815 10.9276 9.11521 10.9276C7.74889 10.9276 6.64127 9.80884 6.64127 8.4288C6.64127 7.69565 6.95513 7.03783 7.45305 6.58074V3.01476H3.34269ZM0.03125 31.3209V15.5084L36.3156 15.5084V31.3209C36.3156 33.1724 34.8372 34.6657 33.0041 34.6657H3.34269C1.50955 34.6657 0.03125 33.1724 0.03125 31.3209Z" fill="#025EA5"/>
</g>
</svg>
